<?xml version="1.0" standalone="no"?>
<!DOCTYPE svg PUBLIC "-//W3C//DTD SVG 1.1//EN" "http://www.w3.org/Graphics/SVG/1.1/DTD/svg11.dtd" >
<svg xmlns="http://www.w3.org/2000/svg" xmlns:xlink="http://www.w3.org/1999/xlink" version="1.1">
<metadata>
Created by FontForge 20220308 at Fri May 27 22:58:00 2005
 By Alexandre Vialle
Copyright (c) 1991 Adobe Systems Incorporated.  All Rights Reserved.
</metadata>
<defs>
<font id="LGamePi-DiceDominoes" horiz-adv-x="1000" >
  <font-face 
    font-family="Linotype Game Pi"
    font-weight="400"
    font-stretch="normal"
    units-per-em="1000"
    panose-1="2 0 5 0 2 0 0 2 0 4"
    ascent="800"
    descent="-200"
    x-height="786"
    cap-height="786"
    bbox="0 -214 1000 792"
    underline-thickness="50"
    underline-position="-125"
    unicode-range="U+0020-007A"
  />
<missing-glyph horiz-adv-x="250" 
 />
    <glyph glyph-name=".notdef" horiz-adv-x="250" 
 />
    <glyph glyph-name=".null" horiz-adv-x="0" 
 />
    <glyph glyph-name="nonmarkingreturn" horiz-adv-x="250" 
 />
    <glyph glyph-name="space" unicode=" " horiz-adv-x="250" 
 />
    <glyph glyph-name="space" unicode="&#xa0;" horiz-adv-x="250" 
 />
    <glyph glyph-name="B" unicode="B" 
d="M18 -214h130v702q0 32 11 60t30.5 48.5t46 32.5t56.5 12h577l51 -17v-2h-628q-26 0 -49 -10.5t-40 -28.5t-27 -42.5t-10 -52.5v-702h28v626l16 37h2v-663h770v783q0 40 -20 76.5t-52 63.5t-73 43t-83 16h-546q-60 0 -97.5 -16t-58 -42.5t-27.5 -60.5t-7 -70v-793z
M810 538q36 0 62 -26t26 -62q0 -18 -7 -34t-19 -28t-28 -19t-34 -7t-34 7t-28 19t-19 28t-7 34t7 34t19 28t28 19t34 7zM338 46q18 0 34 -7t28 -19t19 -28t7 -34t-7 -34t-19 -28t-28 -19t-34 -7q-37 0 -62.5 26t-25.5 62t25.5 62t62.5 26zM198 626l-20 -18l-112 94l22 20z
" />
    <glyph glyph-name="C" unicode="C" 
d="M18 -214h130v702q0 32 11 60t30.5 48.5t46 32.5t56.5 12h577l51 -17v-2h-628q-26 0 -49 -10.5t-40 -28.5t-27 -42.5t-10 -52.5v-702h28v626l16 37h2v-663h770v783q0 40 -20 76.5t-52 63.5t-73 43t-83 16h-546q-60 0 -97.5 -16t-58 -42.5t-27.5 -60.5t-7 -70v-793z
M810 538q36 0 62 -26t26 -62q0 -18 -7 -34t-19 -28t-28 -19t-34 -7t-34 7t-28 19t-19 28t-7 34t7 34t19 28t28 19t34 7zM338 46q18 0 34 -7t28 -19t19 -28t7 -34t-7 -34t-19 -28t-28 -19t-34 -7q-37 0 -62.5 26t-25.5 62t25.5 62t62.5 26zM198 626l-20 -18l-112 94l22 20z
M574 292q18 0 34 -7t28 -19t19 -28t7 -34t-7 -34t-19 -28t-28 -19t-34 -7t-34 7t-28 19t-19 28t-7 34t7 34t19 28t28 19t34 7z" />
    <glyph glyph-name="D" unicode="D" 
d="M18 -214h130v702q0 32 11 60t30.5 48.5t46 32.5t56.5 12h577l51 -17v-2h-628q-26 0 -49 -10.5t-40 -28.5t-27 -42.5t-10 -52.5v-702h28v626l16 37h2v-663h770v783q0 40 -20 76.5t-52 63.5t-73 43t-83 16h-546q-60 0 -97.5 -16t-58 -42.5t-27.5 -60.5t-7 -70v-793z
M810 538q36 0 62 -26t26 -62q0 -18 -7 -34t-19 -28t-28 -19t-34 -7t-34 7t-28 19t-19 28t-7 34t7 34t19 28t28 19t34 7zM810 46q18 0 34 -7t28 -19t19 -28t7 -34t-7 -34t-19 -28t-28 -19t-34 -7t-34 7t-28 19t-19 28t-7 34t7 34t19 28t28 19t34 7zM338 46q18 0 34 -7t28 -19
t19 -28t7 -34t-7 -34t-19 -28t-28 -19t-34 -7q-37 0 -62.5 26t-25.5 62t25.5 62t62.5 26zM338 538q18 0 34 -7t28 -19t19 -28t7 -34t-7 -34t-19 -28t-28 -19t-34 -7t-34 7t-28 19t-19 28t-7 34t7 34t19 28t28 19t34 7zM198 626l-20 -18l-112 94l22 20z" />
    <glyph glyph-name="E" unicode="E" 
d="M18 -214h130v702q0 32 11 60t30.5 48.5t46 32.5t56.5 12h577l51 -17v-2h-628q-26 0 -49 -10.5t-40 -28.5t-27 -42.5t-10 -52.5v-702h28v626l16 37h2v-663h770v783q0 40 -20 76.5t-52 63.5t-73 43t-83 16h-546q-60 0 -97.5 -16t-58 -42.5t-27.5 -60.5t-7 -70v-793z
M810 538q36 0 62 -26t26 -62q0 -18 -7 -34t-19 -28t-28 -19t-34 -7t-34 7t-28 19t-19 28t-7 34t7 34t19 28t28 19t34 7zM810 46q18 0 34 -7t28 -19t19 -28t7 -34t-7 -34t-19 -28t-28 -19t-34 -7t-34 7t-28 19t-19 28t-7 34t7 34t19 28t28 19t34 7zM338 46q18 0 34 -7t28 -19
t19 -28t7 -34t-7 -34t-19 -28t-28 -19t-34 -7q-37 0 -62.5 26t-25.5 62t25.5 62t62.5 26zM338 538q18 0 34 -7t28 -19t19 -28t7 -34t-7 -34t-19 -28t-28 -19t-34 -7t-34 7t-28 19t-19 28t-7 34t7 34t19 28t28 19t34 7zM198 626l-20 -18l-112 94l22 20zM574 292q18 0 34 -7
t28 -19t19 -28t7 -34t-7 -34t-19 -28t-28 -19t-34 -7t-34 7t-28 19t-19 28t-7 34t7 34t19 28t28 19t34 7z" />
    <glyph glyph-name="F" unicode="F" 
d="M18 -214h130v702q0 32 11 60t30.5 48.5t46 32.5t56.5 12h577l51 -17v-2h-628q-26 0 -49 -10.5t-40 -28.5t-27 -42.5t-10 -52.5v-702h28v626l16 37h2v-663h770v783q0 40 -20 76.5t-52 63.5t-73 43t-83 16h-546q-60 0 -97.5 -16t-58 -42.5t-27.5 -60.5t-7 -70v-793z
M810 292q18 0 34 -7t28 -19t19 -28t7 -34t-7 -34t-19 -28t-28 -19t-34 -7t-34 7t-28 19t-19 28t-7 34t7 34t19 28t28 19t34 7zM810 538q36 0 62 -26t26 -62q0 -18 -7 -34t-19 -28t-28 -19t-34 -7t-34 7t-28 19t-19 28t-7 34t7 34t19 28t28 19t34 7zM810 46q18 0 34 -7
t28 -19t19 -28t7 -34t-7 -34t-19 -28t-28 -19t-34 -7t-34 7t-28 19t-19 28t-7 34t7 34t19 28t28 19t34 7zM338 292q18 0 34 -7t28 -19t19 -28t7 -34t-7 -34t-19 -28t-28 -19t-34 -7t-34 7t-28 19t-19 28t-7 34t7 34t19 28t28 19t34 7zM338 46q18 0 34 -7t28 -19t19 -28
t7 -34t-7 -34t-19 -28t-28 -19t-34 -7q-37 0 -62.5 26t-25.5 62t25.5 62t62.5 26zM338 538q18 0 34 -7t28 -19t19 -28t7 -34t-7 -34t-19 -28t-28 -19t-34 -7t-34 7t-28 19t-19 28t-7 34t7 34t19 28t28 19t34 7zM198 626l-20 -18l-112 94l22 20z" />
    <glyph glyph-name="G" unicode="G" 
d="M198 626l-20 -18l-112 94l22 20zM18 -214h130v702q0 32 11 60t30.5 48.5t46 32.5t56.5 12h577l51 -17v-2h-628q-26 0 -49 -10.5t-40 -28.5t-27 -42.5t-10 -52.5v-702h28v626l16 37h2v-663h770v783q0 40 -20 76.5t-52 63.5t-73 43t-83 16h-546q-60 0 -97.5 -16t-58 -42.5
t-27.5 -60.5t-7 -70v-793z" />
    <glyph glyph-name="H" unicode="H" 
d="M574 310q18 0 34 -7t28 -19t19 -28t7 -34t-7 -34t-19 -28t-28 -19t-34 -7t-34 7t-28.5 19t-19.5 28t-7 34t7 34t19.5 28t28.5 19t34 7zM18 26q0 -48 19.5 -88.5t50.5 -70t69 -46.5t75 -17h618q27 0 51 11t42 30t28.5 44.5t10.5 54.5v842h-770v-496l-16 -51h-2v547h-28
v-895h-2l-16 52v843h-130v-760zM886 722v-18h-636v18h636z" />
    <glyph glyph-name="I" unicode="I" 
d="M18 26q0 -48 19.5 -88.5t50.5 -70t69 -46.5t75 -17h618q27 0 51 11t42 30t28.5 44.5t10.5 54.5v842h-770v-496l-16 -51h-2v547h-28v-895h-2l-16 52v843h-130v-760zM810 556q18 0 34 -7t28 -19t19 -28t7 -34t-7 -34t-19 -28t-28 -19t-34 -7t-34 7t-28.5 19t-19.5 28t-7 34
t7 34t19.5 28t28.5 19t34 7zM886 722v-18h-636v18h636zM338 64q18 0 34 -7t28 -19t19 -28t7 -34t-7 -34t-19 -28t-28 -19t-34 -7t-34 7t-28 19t-19 28t-7 34t7 34t19 28t28 19t34 7z" />
    <glyph glyph-name="J" unicode="J" 
d="M18 26q0 -48 19.5 -88.5t50.5 -70t69 -46.5t75 -17h618q27 0 51 11t42 30t28.5 44.5t10.5 54.5v842h-770v-496l-16 -51h-2v547h-28v-895h-2l-16 52v843h-130v-760zM810 556q18 0 34 -7t28 -19t19 -28t7 -34t-7 -34t-19 -28t-28 -19t-34 -7t-34 7t-28.5 19t-19.5 28t-7 34
t7 34t19.5 28t28.5 19t34 7zM886 722v-18h-636v18h636zM338 64q18 0 34 -7t28 -19t19 -28t7 -34t-7 -34t-19 -28t-28 -19t-34 -7t-34 7t-28 19t-19 28t-7 34t7 34t19 28t28 19t34 7zM574 310q18 0 34 -7t28 -19t19 -28t7 -34t-7 -34t-19 -28t-28 -19t-34 -7t-34 7t-28.5 19
t-19.5 28t-7 34t7 34t19.5 28t28.5 19t34 7z" />
    <glyph glyph-name="K" unicode="K" 
d="M18 26q0 -48 19.5 -88.5t50.5 -70t69 -46.5t75 -17h618q27 0 51 11t42 30t28.5 44.5t10.5 54.5v842h-770v-496l-16 -51h-2v547h-28v-895h-2l-16 52v843h-130v-760zM886 722v-18h-636v18h636zM338 556q18 0 34 -7t28 -19t19 -28t7 -34t-7 -34t-19 -28t-28 -19t-34 -7
t-34 7t-28 19t-19 28t-7 34t7 34t19 28t28 19t34 7zM810 556q18 0 34 -7t28 -19t19 -28t7 -34t-7 -34t-19 -28t-28 -19t-34 -7t-34 7t-28.5 19t-19.5 28t-7 34t7 34t19.5 28t28.5 19t34 7zM338 64q18 0 34 -7t28 -19t19 -28t7 -34t-7 -34t-19 -28t-28 -19t-34 -7t-34 7
t-28 19t-19 28t-7 34t7 34t19 28t28 19t34 7zM810 64q18 0 34 -7t28 -19t19 -28t7 -34t-7 -34t-19 -28t-28 -19t-34 -7t-34 7t-28.5 19t-19.5 28t-7 34t7 34t19.5 28t28.5 19t34 7z" />
    <glyph glyph-name="L" unicode="L" 
d="M18 26q0 -48 19.5 -88.5t50.5 -70t69 -46.5t75 -17h618q27 0 51 11t42 30t28.5 44.5t10.5 54.5v842h-770v-496l-16 -51h-2v547h-28v-895h-2l-16 52v843h-130v-760zM886 722v-18h-636v18h636zM338 556q18 0 34 -7t28 -19t19 -28t7 -34t-7 -34t-19 -28t-28 -19t-34 -7
t-34 7t-28 19t-19 28t-7 34t7 34t19 28t28 19t34 7zM810 556q18 0 34 -7t28 -19t19 -28t7 -34t-7 -34t-19 -28t-28 -19t-34 -7t-34 7t-28.5 19t-19.5 28t-7 34t7 34t19.5 28t28.5 19t34 7zM338 64q18 0 34 -7t28 -19t19 -28t7 -34t-7 -34t-19 -28t-28 -19t-34 -7t-34 7
t-28 19t-19 28t-7 34t7 34t19 28t28 19t34 7zM810 64q18 0 34 -7t28 -19t19 -28t7 -34t-7 -34t-19 -28t-28 -19t-34 -7t-34 7t-28.5 19t-19.5 28t-7 34t7 34t19.5 28t28.5 19t34 7zM574 310q18 0 34 -7t28 -19t19 -28t7 -34t-7 -34t-19 -28t-28 -19t-34 -7t-34 7t-28.5 19
t-19.5 28t-7 34t7 34t19.5 28t28.5 19t34 7z" />
    <glyph glyph-name="M" unicode="M" 
d="M18 26q0 -48 19.5 -88.5t50.5 -70t69 -46.5t75 -17h618q27 0 51 11t42 30t28.5 44.5t10.5 54.5v842h-770v-496l-16 -51h-2v547h-28v-895h-2l-16 52v843h-130v-760zM338 310q18 0 34 -7t28 -19t19 -28t7 -34t-7 -34t-19 -28t-28 -19t-34 -7t-34 7t-28 19t-19 28t-7 34
t7 34t19 28t28 19t34 7zM338 556q18 0 34 -7t28 -19t19 -28t7 -34t-7 -34t-19 -28t-28 -19t-34 -7t-34 7t-28 19t-19 28t-7 34t7 34t19 28t28 19t34 7zM886 722v-18h-636v18h636zM810 556q18 0 34 -7t28 -19t19 -28t7 -34t-7 -34t-19 -28t-28 -19t-34 -7t-34 7t-28.5 19
t-19.5 28t-7 34t7 34t19.5 28t28.5 19t34 7zM810 310q18 0 34 -7t28 -19t19 -28t7 -34t-7 -34t-19 -28t-28 -19t-34 -7t-34 7t-28.5 19t-19.5 28t-7 34t7 34t19.5 28t28.5 19t34 7zM338 64q18 0 34 -7t28 -19t19 -28t7 -34t-7 -34t-19 -28t-28 -19t-34 -7t-34 7t-28 19
t-19 28t-7 34t7 34t19 28t28 19t34 7zM810 64q18 0 34 -7t28 -19t19 -28t7 -34t-7 -34t-19 -28t-28 -19t-34 -7t-34 7t-28.5 19t-19.5 28t-7 34t7 34t19.5 28t28.5 19t34 7z" />
    <glyph glyph-name="N" unicode="N" 
d="M18 26q0 -48 19.5 -88.5t50.5 -70t69 -46.5t75 -17h618q27 0 51 11t42 30t28.5 44.5t10.5 54.5v842h-770v-496l-16 -51h-2v547h-28v-895h-2l-16 52v843h-130v-760zM886 722v-18h-636v18h636z" />
    <glyph glyph-name="O" unicode="O" horiz-adv-x="834" 
d="M248 -140q0 9 10.5 19.5t26 19.5t33.5 15t33 6q14 0 19 -4.5t5 -9.5q0 -10 -11 -20.5t-27 -19t-34 -14t-33 -5.5q-13 0 -17.5 4.5t-4.5 8.5zM308 35q0 9 10.5 19.5t26 19.5t33.5 15t33 6q14 0 19 -4.5t5 -9.5q0 -10 -11 -20.5t-27 -19t-34 -14t-33 -5.5q-13 0 -17.5 4.5
t-4.5 8.5zM145 -54q0 27 19 25q7 -1 15.5 -8t15.5 -17.5t11.5 -23.5t4.5 -26q0 -14 -5 -19.5t-11 -5.5t-15 6.5t-16.5 17.5t-13 24t-5.5 27zM224 -179q-2 -6 -2 -8q0 -3 3.5 -3.5t7.5 1.5l443 224q8 4 13 9t8 11l114 234q4 6 4 9t-10 -3l-492 -227q-10 -5 -13 -16zM197 117
q0 27 19 25q7 -1 15.5 -8t15.5 -17.5t11.5 -23.5t4.5 -26q0 -14 -5 -19.5t-11 -5.5t-15 6.5t-16.5 17.5t-13 24t-5.5 27zM107 180q0 27 19 25q7 -1 15.5 -8t15.5 -17.5t11.5 -23.5t4.5 -26q0 -14 -5 -19.5t-11 -5.5t-15 6.5t-16.5 17.5t-13 24t-5.5 27zM17 233q0 27 19 25
q7 -1 15.5 -8t15.5 -17.5t11.5 -23.5t4.5 -26q0 -14 -5 -19.5t-11 -5.5t-15 6.5t-16.5 17.5t-13 24t-5.5 27zM184 -174q3 -7 6 -7q4 0 5 7l77 233q5 14 -1 26l-202 437q-2 6 -5 6q-4 0 -5 -9l-48 -279q-1 -7 -1 -14t3 -14zM652 194q0 9 10.5 19.5t26 19.5t33.5 15t33 6
q14 0 19 -4.5t5 -9.5q0 -10 -11 -20.5t-27 -19t-34 -14t-33 -5.5q-13 0 -17.5 4.5t-4.5 8.5zM566 22q0 9 10.5 19.5t26 19.5t33.5 15t33 6q14 0 19 -4.5t5 -9.5q0 -10 -11 -20.5t-27 -19t-34 -14t-33 -5.5q-13 0 -17.5 4.5t-4.5 8.5zM94 584q-15 -7 -15 -16t5 -19l202 -439
q7 -14 23 -14q6 0 16 5l485 224q14 7 14 25q0 5 -7 17l-216 405q-7 14 -18 14q-5 0 -10 -2l-10 -4zM377 447q0 29 22 49t53 20t53 -20t22 -49t-22 -49t-53 -20t-53 20t-22 49zM49 438q0 27 19 25q7 -1 15.5 -8t15.5 -17.5t11.5 -23.5t4.5 -26q0 -14 -5 -19.5t-11 -5.5
t-15 6.5t-16.5 17.5t-13 24t-5.5 27z" />
    <glyph glyph-name="P" unicode="P" horiz-adv-x="834" 
d="M248 -136q0 9 10.5 19.5t26 19.5t33.5 15t33 6q14 0 19 -4.5t5 -9.5q0 -10 -11 -20.5t-27 -19t-34 -14t-33 -5.5q-13 0 -17.5 4.5t-4.5 8.5zM308 36q0 9 10.5 19.5t26 19.5t33.5 15t33 6q14 0 19 -4.5t5 -9.5q0 -10 -11 -20.5t-27 -19t-34 -14t-33 -5.5q-13 0 -17.5 4.5
t-4.5 8.5zM477 116q0 9 10.5 19.5t26 19.5t33.5 15t33 6q14 0 19 -4.5t5 -9.5q0 -10 -11 -20.5t-27 -19t-34 -14t-33 -5.5q-13 0 -17.5 4.5t-4.5 8.5zM405 -54q0 9 10.5 19.5t26 19.5t33.5 15t33 6q14 0 19 -4.5t5 -9.5q0 -10 -11 -20.5t-27 -19t-34 -14t-33 -5.5
q-13 0 -17.5 4.5t-4.5 8.5zM275 219q0 29 22 49t53 20t53 -20t22 -49t-22 -49t-53 -20t-53 20t-22 49zM94 584q-15 -7 -15 -16t5 -19l202 -439q7 -14 23 -14q6 0 16 5l485 224q14 7 14 25q0 5 -7 17l-216 405q-7 14 -18 14q-5 0 -10 -2l-10 -4zM652 194q0 9 10.5 19.5
t26 19.5t33.5 15t33 6q14 0 19 -4.5t5 -9.5q0 -10 -11 -20.5t-27 -19t-34 -14t-33 -5.5q-13 0 -17.5 4.5t-4.5 8.5zM566 22q0 9 10.5 19.5t26 19.5t33.5 15t33 6q14 0 19 -4.5t5 -9.5q0 -10 -11 -20.5t-27 -19t-34 -14t-33 -5.5q-13 0 -17.5 4.5t-4.5 8.5zM145 -54
q0 27 19 25q7 -1 15.5 -8t15.5 -17.5t12 -23.5t5 -26q0 -14 -5.5 -19.5t-11.5 -5.5t-14.5 6.5t-16.5 17.5t-13.5 24t-5.5 27zM224 -179q-2 -6 -2 -8q0 -3 3.5 -3.5t7.5 1.5l443 224q8 4 13 9t8 11l114 234q4 6 4 9t-10 -3l-492 -227q-10 -5 -13 -16zM466 669q0 29 22 49
t53 20t53 -20t22 -49t-22 -49t-53 -20t-53 20t-22 49zM198 117q0 27 19 25q7 -1 15.5 -8t15.5 -17.5t12 -23.5t5 -26q0 -14 -5.5 -19.5t-11.5 -5.5t-14.5 6.5t-16.5 17.5t-13.5 24t-5.5 27zM184 -174q3 -7 6 -7q4 0 5 7l77 233q5 14 -1 26l-202 437q-2 6 -5 6q-4 0 -5 -9
l-48 -279q-1 -7 -1 -14t3 -14zM16 233q0 27 19 25q7 -1 15.5 -8t15.5 -17.5t12 -23.5t5 -26q0 -14 -5.5 -19.5t-11.5 -5.5t-14.5 6.5t-16.5 17.5t-13.5 24t-5.5 27zM49 438q0 27 19 25q7 -1 15.5 -8t15.5 -17.5t12 -23.5t5 -26q0 -14 -5.5 -19.5t-11.5 -5.5t-14.5 6.5
t-16.5 17.5t-13.5 24t-5.5 27z" />
    <glyph glyph-name="Q" unicode="Q" horiz-adv-x="834" 
d="M248 -136q0 9 10.5 19.5t26 19.5t33.5 15t33 6q14 0 19 -4.5t5 -9.5q0 -10 -11 -20.5t-27 -19t-34 -14t-33 -5.5q-13 0 -17.5 4.5t-4.5 8.5zM145 -54q0 27 19 25q7 -1 15.5 -8t15.5 -17.5t12 -23.5t5 -26q0 -14 -5.5 -19.5t-11.5 -5.5t-14.5 6.5t-16.5 17.5t-13.5 24
t-5.5 27zM224 -179q-2 -6 -2 -8q0 -3 3.5 -3.5t7.5 1.5l443 224q8 4 13 9t8 11l114 234q4 6 4 9t-10 -3l-492 -227q-10 -5 -13 -16zM275 -51q0 9 10.5 19.5t26 19.5t33.5 15t33 6q14 0 19 -4.5t5 -9.5q0 -10 -11 -20.5t-27 -19t-34 -14t-33 -5.5q-13 0 -17.5 4.5t-4.5 8.5z
M275 219q0 29 22 49t53 20t53 -20t22 -49t-22 -49t-53 -20t-53 20t-22 49zM94 584q-15 -7 -15 -16t5 -19l202 -439q7 -14 23 -14q6 0 16 5l485 224q14 7 14 25q0 5 -7 17l-216 405q-7 14 -18 14q-5 0 -10 -2l-10 -4zM466 669q0 29 22 49t53 20t53 -20t22 -49t-22 -49
t-53 -20t-53 20t-22 49zM377 447q0 29 22 49t53 20t53 -20t22 -49t-22 -49t-53 -20t-53 20t-22 49zM308 36q0 9 10.5 19.5t26 19.5t33.5 15t33 6q14 0 19 -4.5t5 -9.5q0 -10 -11 -20.5t-27 -19t-34 -14t-33 -5.5q-13 0 -17.5 4.5t-4.5 8.5zM610 107q0 9 10.5 19.5t26 19.5
t33.5 15t33 6q14 0 19 -4.5t5 -9.5q0 -10 -11 -20.5t-27 -19t-34 -14t-33 -5.5q-13 0 -17.5 4.5t-4.5 8.5zM652 194q0 9 10.5 19.5t26 19.5t33.5 15t33 6q14 0 19 -4.5t5 -9.5q0 -10 -11 -20.5t-27 -19t-34 -14t-33 -5.5q-13 0 -17.5 4.5t-4.5 8.5zM566 22q0 9 10.5 19.5
t26 19.5t33.5 15t33 6q14 0 19 -4.5t5 -9.5q0 -10 -11 -20.5t-27 -19t-34 -14t-33 -5.5q-13 0 -17.5 4.5t-4.5 8.5zM11 240q-1 -7 -1 -14t3 -14l171 -386q3 -7 6 -7q4 0 5 7l77 233q5 14 -1 26l-202 437q-2 6 -5 6q-4 0 -5 -9zM49 438q0 27 19 25q7 -1 15.5 -8t15.5 -17.5
t12 -23.5t5 -26q0 -14 -5.5 -19.5t-11.5 -5.5t-14.5 6.5t-16.5 17.5t-13.5 24t-5.5 27z" />
    <glyph glyph-name="R" unicode="R" horiz-adv-x="834" 
d="M94 584q-15 -7 -15 -16t5 -19l202 -439q7 -14 23 -14q6 0 16 5l485 224q14 7 14 25q0 5 -7 17l-216 405q-7 14 -18 14q-5 0 -10 -2l-10 -4zM275 219q0 29 22 49t53 20t53 -20t22 -49t-22 -49t-53 -20t-53 20t-22 49zM466 669q0 29 22 49t53 20t53 -20t22 -49t-22 -49
t-53 -20t-53 20t-22 49zM133 531q0 29 22 49t53 20t53 -20t22 -49t-22 -49t-53 -20t-53 20t-22 49zM620 378q0 29 22 49t53 20t53 -20t22 -49t-22 -49t-53 -20t-53 20t-22 49zM145 -54q0 27 19 25q7 -1 15.5 -8t15.5 -17.5t12 -23.5t5 -26q0 -14 -5.5 -19.5t-11.5 -5.5
t-14.5 6.5t-16.5 17.5t-13.5 24t-5.5 27zM224 -179q-2 -6 -2 -8q0 -3 3.5 -3.5t7.5 1.5l443 224q8 4 13 9t8 11l114 234q4 6 4 9t-10 -3l-492 -227q-10 -5 -13 -16zM184 -174q3 -7 6 -7q4 0 5 7l77 233q5 14 -1 26l-202 437q-2 6 -5 6q-4 0 -5 -9l-48 -279q-1 -7 -1 -14
t3 -14zM49 438q0 27 19 25q7 -1 15.5 -8t15.5 -17.5t12 -23.5t5 -26q0 -14 -5.5 -19.5t-11.5 -5.5t-14.5 6.5t-16.5 17.5t-13.5 24t-5.5 27zM447 33q0 9 10.5 19.5t26 19.5t33.5 15t33 6q14 0 19 -4.5t5 -9.5q0 -10 -11 -20.5t-27 -19t-34 -14t-33 -5.5q-13 0 -17.5 4.5
t-4.5 8.5z" />
    <glyph glyph-name="S" unicode="S" horiz-adv-x="834" 
d="M94 584q-15 -7 -15 -16t5 -19l202 -439q7 -14 23 -14q6 0 16 5l485 224q14 7 14 25q0 5 -7 17l-216 405q-7 14 -18 14q-5 0 -10 -2l-10 -4zM275 219q0 29 22 49t53 20t53 -20t22 -49t-22 -49t-53 -20t-53 20t-22 49zM376 447q0 29 22 49t53 20t53 -20t22 -49t-22 -49
t-53 -20t-53 20t-22 49zM466 669q0 29 22 49t53 20t53 -20t22 -49t-22 -49t-53 -20t-53 20t-22 49zM620 378q0 29 22 49t53 20t53 -20t22 -49t-22 -49t-53 -20t-53 20t-22 49zM133 531q0 29 22 49t53 20t53 -20t22 -49t-22 -49t-53 -20t-53 20t-22 49zM199 117q0 27 19 25
q7 -1 15.5 -8t15.5 -17.5t12 -23.5t5 -26q0 -14 -5.5 -19.5t-11.5 -5.5t-14.5 6.5t-16.5 17.5t-13.5 24t-5.5 27zM184 -174q3 -7 6 -7q4 0 5 7l77 233q5 14 -1 26l-202 437q-2 6 -5 6q-4 0 -5 -9l-48 -279q-1 -7 -1 -14t3 -14zM16 233q0 27 19 25q7 -1 15.5 -8t15.5 -17.5
t12 -23.5t5 -26q0 -14 -5.5 -19.5t-11.5 -5.5t-14.5 6.5t-16.5 17.5t-13.5 24t-5.5 27zM224 -179q-2 -6 -2 -8q0 -3 3.5 -3.5t7.5 1.5l443 224q8 4 13 9t8 11l114 234q4 6 4 9t-10 -3l-492 -227q-10 -5 -13 -16zM445 35q0 9 10.5 19.5t26 19.5t33.5 15t33 6q14 0 19 -4.5
t5 -9.5q0 -10 -11 -20.5t-27 -19t-34 -14t-33 -5.5q-13 0 -17.5 4.5t-4.5 8.5zM145 -54q0 27 19 25q7 -1 15.5 -8t15.5 -17.5t12 -23.5t5 -26q0 -14 -5.5 -19.5t-11.5 -5.5t-14.5 6.5t-16.5 17.5t-13.5 24t-5.5 27zM49 438q0 27 19 25q7 -1 15.5 -8t15.5 -17.5t11.5 -23.5
t4.5 -26q0 -14 -5 -19.5t-11 -5.5t-15 6.5t-16.5 17.5t-13 24t-5.5 27z" />
    <glyph glyph-name="T" unicode="T" horiz-adv-x="834" 
d="M94 584q-15 -7 -15 -16t5 -19l202 -439q7 -14 23 -14q6 0 16 5l485 224q14 7 14 25q0 5 -7 17l-216 405q-7 14 -18 14q-5 0 -10 -2l-10 -4zM620 377q0 29 22 49t53 20t53 -20t22 -49t-22 -49t-53 -20t-53 20t-22 49zM275 219q0 29 22 49t53 20t53 -20t22 -49t-22 -49
t-53 -20t-53 20t-22 49zM466 669q0 29 22 49t53 20t53 -20t22 -49t-22 -49t-53 -20t-53 20t-22 49zM133 531q0 29 22 49t53 20t53 -20t22 -49t-22 -49t-53 -20t-53 20t-22 49zM301 600q0 29 22 49t53 20t53 -20t22 -49t-22 -49t-53 -20t-53 20t-22 49zM652 194
q0 9 10.5 19.5t26 19.5t33.5 15t33 6q14 0 19 -4.5t5 -9.5q0 -10 -11 -20.5t-27 -19t-34 -14t-33 -5.5q-13 0 -17.5 4.5t-4.5 8.5zM308 35q0 9 10.5 19.5t26 19.5t33.5 15t33 6q14 0 19 -4.5t5 -9.5q0 -10 -11 -20.5t-27 -19t-34 -14t-33 -5.5q-13 0 -17.5 4.5t-4.5 8.5z
M248 -134q0 9 10.5 19.5t26 19.5t33.5 15t33 6q14 0 19 -4.5t5 -9.5q0 -10 -11 -20.5t-27 -19t-34 -14t-33 -5.5q-13 0 -17.5 4.5t-4.5 8.5zM224 -179q-2 -6 -2 -8q0 -3 3.5 -3.5t7.5 1.5l443 224q8 4 13 9t8 11l114 234q4 6 4 9t-10 -3l-492 -227q-10 -5 -13 -16zM145 -54
q0 27 19 25q7 -1 15.5 -8t15.5 -17.5t12 -23.5t5 -26q0 -14 -5.5 -19.5t-11.5 -5.5t-14.5 6.5t-16.5 17.5t-13.5 24t-5.5 27zM566 22q0 9 10.5 19.5t26 19.5t33.5 15t33 6q14 0 19 -4.5t5 -9.5q0 -10 -11 -20.5t-27 -19t-34 -14t-33 -5.5q-13 0 -17.5 4.5t-4.5 8.5zM198 117
q0 27 19 25q7 -1 15.5 -8t15.5 -17.5t12 -23.5t5 -26q0 -14 -5.5 -19.5t-11.5 -5.5t-14.5 6.5t-16.5 17.5t-13.5 24t-5.5 27zM11 240q-1 -7 -1 -14t3 -14l171 -386q3 -7 6 -7q4 0 5 7l77 233q5 14 -1 26l-202 437q-2 6 -5 6q-4 0 -5 -9zM448 299q0 29 22 49t53 20t53 -20
t22 -49t-22 -49t-53 -20t-53 20t-22 49zM16 233q0 27 19 25q7 -1 15.5 -8t15.5 -17.5t12 -23.5t5 -26q0 -14 -5.5 -19.5t-11.5 -5.5t-14.5 6.5t-16.5 17.5t-13.5 24t-5.5 27zM447 33q0 9 10.5 19.5t26 19.5t33.5 15t33 6q14 0 19 -4.5t5 -9.5q0 -10 -11 -20.5t-27 -19
t-34 -14t-33 -5.5q-13 0 -17.5 4.5t-4.5 8.5zM49 438q0 27 19 25q7 -1 15.5 -8t15.5 -17.5t11.5 -23.5t4.5 -26q0 -14 -5 -19.5t-11 -5.5t-15 6.5t-16.5 17.5t-13 24t-5.5 27z" />
    <glyph glyph-name="U" unicode="U" 
d="M0 -136q0 -32 23 -55t55 -23h844q32 0 55 23t23 55v844q0 32 -23 55t-55 23h-844q-32 0 -55 -23t-23 -55v-844zM380 286q0 25 9.5 46.5t26 38t38 26t46.5 9.5t46.5 -9.5t38 -26t26 -38t9.5 -46.5t-9.5 -46.5t-26 -38t-38 -26t-46.5 -9.5t-46.5 9.5t-38 26t-26 38
t-9.5 46.5z" />
    <glyph glyph-name="V" unicode="V" 
d="M0 -136q0 -32 23 -55t55 -23h844q32 0 55 23t23 55v844q0 32 -23 55t-55 23h-844q-32 0 -55 -23t-23 -55v-844zM670 576q0 25 9.5 46.5t26 38t38 26t46.5 9.5t46.5 -9.5t38 -26t26 -38t9.5 -46.5t-9.5 -46.5t-26 -38t-38 -26t-46.5 -9.5t-46.5 9.5t-38 26t-26 38
t-9.5 46.5zM90 -4q0 25 9.5 46.5t26 38t38 26t46.5 9.5t46.5 -9.5t38 -26t26 -38t9.5 -46.5t-9.5 -46.5t-26 -38t-38 -26t-46.5 -9.5t-46.5 9.5t-38 26t-26 38t-9.5 46.5z" />
    <glyph glyph-name="W" unicode="W" 
d="M0 -136q0 -32 23 -55t55 -23h844q32 0 55 23t23 55v844q0 32 -23 55t-55 23h-844q-32 0 -55 -23t-23 -55v-844zM670 576q0 25 9.5 46.5t26 38t38 26t46.5 9.5t46.5 -9.5t38 -26t26 -38t9.5 -46.5t-9.5 -46.5t-26 -38t-38 -26t-46.5 -9.5t-46.5 9.5t-38 26t-26 38
t-9.5 46.5zM90 -4q0 25 9.5 46.5t26 38t38 26t46.5 9.5t46.5 -9.5t38 -26t26 -38t9.5 -46.5t-9.5 -46.5t-26 -38t-38 -26t-46.5 -9.5t-46.5 9.5t-38 26t-26 38t-9.5 46.5zM380 286q0 25 9.5 46.5t26 38t38 26t46.5 9.5t46.5 -9.5t38 -26t26 -38t9.5 -46.5t-9.5 -46.5
t-26 -38t-38 -26t-46.5 -9.5t-46.5 9.5t-38 26t-26 38t-9.5 46.5z" />
    <glyph glyph-name="X" unicode="X" 
d="M0 -136q0 -32 23 -55t55 -23h844q32 0 55 23t23 55v844q0 32 -23 55t-55 23h-844q-32 0 -55 -23t-23 -55v-844zM670 -4q0 25 9.5 46.5t26 38t38 26t46.5 9.5t46.5 -9.5t38 -26t26 -38t9.5 -46.5t-9.5 -46.5t-26 -38t-38 -26t-46.5 -9.5t-46.5 9.5t-38 26t-26 38
t-9.5 46.5zM90 576q0 25 9.5 46.5t26 38t38 26t46.5 9.5t46.5 -9.5t38 -26t26 -38t9.5 -46.5t-9.5 -46.5t-26 -38t-38 -26t-46.5 -9.5t-46.5 9.5t-38 26t-26 38t-9.5 46.5zM670 576q0 25 9.5 46.5t26 38t38 26t46.5 9.5t46.5 -9.5t38 -26t26 -38t9.5 -46.5t-9.5 -46.5
t-26 -38t-38 -26t-46.5 -9.5t-46.5 9.5t-38 26t-26 38t-9.5 46.5zM90 -4q0 25 9.5 46.5t26 38t38 26t46.5 9.5t46.5 -9.5t38 -26t26 -38t9.5 -46.5t-9.5 -46.5t-26 -38t-38 -26t-46.5 -9.5t-46.5 9.5t-38 26t-26 38t-9.5 46.5z" />
    <glyph glyph-name="Y" unicode="Y" 
d="M0 -136q0 -32 23 -55t55 -23h844q32 0 55 23t23 55v844q0 32 -23 55t-55 23h-844q-32 0 -55 -23t-23 -55v-844zM670 -4q0 25 9.5 46.5t26 38t38 26t46.5 9.5t46.5 -9.5t38 -26t26 -38t9.5 -46.5t-9.5 -46.5t-26 -38t-38 -26t-46.5 -9.5t-46.5 9.5t-38 26t-26 38
t-9.5 46.5zM90 576q0 25 9.5 46.5t26 38t38 26t46.5 9.5t46.5 -9.5t38 -26t26 -38t9.5 -46.5t-9.5 -46.5t-26 -38t-38 -26t-46.5 -9.5t-46.5 9.5t-38 26t-26 38t-9.5 46.5zM670 576q0 25 9.5 46.5t26 38t38 26t46.5 9.5t46.5 -9.5t38 -26t26 -38t9.5 -46.5t-9.5 -46.5
t-26 -38t-38 -26t-46.5 -9.5t-46.5 9.5t-38 26t-26 38t-9.5 46.5zM90 -4q0 25 9.5 46.5t26 38t38 26t46.5 9.5t46.5 -9.5t38 -26t26 -38t9.5 -46.5t-9.5 -46.5t-26 -38t-38 -26t-46.5 -9.5t-46.5 9.5t-38 26t-26 38t-9.5 46.5zM380 286q0 25 9.5 46.5t26 38t38 26t46.5 9.5
t46.5 -9.5t38 -26t26 -38t9.5 -46.5t-9.5 -46.5t-26 -38t-38 -26t-46.5 -9.5t-46.5 9.5t-38 26t-26 38t-9.5 46.5z" />
    <glyph glyph-name="Z" unicode="Z" 
d="M0 -136q0 -32 23 -55t55 -23h844q32 0 55 23t23 55v844q0 32 -23 55t-55 23h-844q-32 0 -55 -23t-23 -55v-844zM90 286q0 25 9.5 46.5t26 38t38 26t46.5 9.5t46.5 -9.5t38 -26t26 -38t9.5 -46.5t-9.5 -46.5t-26 -38t-38 -26t-46.5 -9.5t-46.5 9.5t-38 26t-26 38
t-9.5 46.5zM90 576q0 25 9.5 46.5t26 38t38 26t46.5 9.5t46.5 -9.5t38 -26t26 -38t9.5 -46.5t-9.5 -46.5t-26 -38t-38 -26t-46.5 -9.5t-46.5 9.5t-38 26t-26 38t-9.5 46.5zM90 -4q0 25 9.5 46.5t26 38t38 26t46.5 9.5t46.5 -9.5t38 -26t26 -38t9.5 -46.5t-9.5 -46.5t-26 -38
t-38 -26t-46.5 -9.5t-46.5 9.5t-38 26t-26 38t-9.5 46.5zM670 286q0 25 9.5 46.5t26 38t38 26t46.5 9.5t46.5 -9.5t38 -26t26 -38t9.5 -46.5t-9.5 -46.5t-26 -38t-38 -26t-46.5 -9.5t-46.5 9.5t-38 26t-26 38t-9.5 46.5zM670 -4q0 25 9.5 46.5t26 38t38 26t46.5 9.5
t46.5 -9.5t38 -26t26 -38t9.5 -46.5t-9.5 -46.5t-26 -38t-38 -26t-46.5 -9.5t-46.5 9.5t-38 26t-26 38t-9.5 46.5zM670 576q0 25 9.5 46.5t26 38t38 26t46.5 9.5t46.5 -9.5t38 -26t26 -38t9.5 -46.5t-9.5 -46.5t-26 -38t-38 -26t-46.5 -9.5t-46.5 9.5t-38 26t-26 38
t-9.5 46.5z" />
    <glyph glyph-name="underscore" unicode="_" horiz-adv-x="250" 
 />
    <glyph glyph-name="a" unicode="a" 
d="M494 212q0 18 7 34t19 28t28 19t34 7t34 -7t28 -19t19 -28t7 -34t-7 -34t-19 -28t-28 -19t-34 -7t-34 7t-28 19t-19 28t-7 34zM71 706l17 16l106 -98l-17 -14zM18 32q0 -42 16 -83t43 -73t63 -52t77 -20h783v770h-663v2l37 16h626v28h-702q-28 0 -52.5 -10t-42.5 -27
t-28.5 -40t-10.5 -49v-628h-2l-17 51v577q0 30 12 56t32.5 45.5t48.5 31t60 11.5h702v130h-793q-36 0 -70 -7t-60.5 -27.5t-42.5 -58t-16 -97.5v-546z" />
    <glyph glyph-name="b" unicode="b" 
d="M18 32q0 -42 16 -83t43 -73t63 -52t77 -20h783v770h-663v2l37 16h626v28h-702q-28 0 -52.5 -10t-42.5 -27t-28.5 -40t-10.5 -49v-628h-2l-17 51v577q0 30 12 56t32.5 45.5t48.5 31t60 11.5h702v130h-793q-36 0 -70 -7t-60.5 -27.5t-42.5 -58t-16 -97.5v-546zM248 -24
q0 18 7 34t19 28t28 19t34 7t34 -7t28 -19t19 -28t7 -34t-7 -34t-19 -28t-28 -19t-34 -7t-34 7t-28 19t-19 28t-7 34zM740 448q0 37 26 62.5t62 25.5t62 -25.5t26 -62.5q0 -18 -7 -34t-19 -28t-28 -19t-34 -7t-34 7t-28 19t-19 28t-7 34zM71 706l17 16l106 -98l-17 -14z" />
    <glyph glyph-name="c" unicode="c" 
d="M18 32q0 -42 16 -83t43 -73t63 -52t77 -20h783v770h-663v2l37 16h626v28h-702q-28 0 -52.5 -10t-42.5 -27t-28.5 -40t-10.5 -49v-628h-2l-17 51v577q0 30 12 56t32.5 45.5t48.5 31t60 11.5h702v130h-793q-36 0 -70 -7t-60.5 -27.5t-42.5 -58t-16 -97.5v-546zM248 -24
q0 18 7 34t19 28t28 19t34 7t34 -7t28 -19t19 -28t7 -34t-7 -34t-19 -28t-28 -19t-34 -7t-34 7t-28 19t-19 28t-7 34zM740 448q0 37 26 62.5t62 25.5t62 -25.5t26 -62.5q0 -18 -7 -34t-19 -28t-28 -19t-34 -7t-34 7t-28 19t-19 28t-7 34zM71 706l17 16l106 -98l-17 -14z
M494 212q0 18 7 34t19 28t28 19t34 7t34 -7t28 -19t19 -28t7 -34t-7 -34t-19 -28t-28 -19t-34 -7t-34 7t-28 19t-19 28t-7 34z" />
    <glyph glyph-name="d" unicode="d" 
d="M18 32q0 -42 16 -83t43 -73t63 -52t77 -20h783v770h-663v2l37 16h626v28h-702q-28 0 -52.5 -10t-42.5 -27t-28.5 -40t-10.5 -49v-628h-2l-17 51v577q0 30 12 56t32.5 45.5t48.5 31t60 11.5h702v130h-793q-36 0 -70 -7t-60.5 -27.5t-42.5 -58t-16 -97.5v-546zM248 -24
q0 18 7 34t19 28t28 19t34 7t34 -7t28 -19t19 -28t7 -34t-7 -34t-19 -28t-28 -19t-34 -7t-34 7t-28 19t-19 28t-7 34zM740 -24q0 18 7 34t19 28t28 19t34 7t34 -7t28 -19t19 -28t7 -34t-7 -34t-19 -28t-28 -19t-34 -7t-34 7t-28 19t-19 28t-7 34zM740 448q0 37 26 62.5
t62 25.5t62 -25.5t26 -62.5q0 -18 -7 -34t-19 -28t-28 -19t-34 -7t-34 7t-28 19t-19 28t-7 34zM248 448q0 18 7 34t19 28t28 19t34 7t34 -7t28 -19t19 -28t7 -34t-7 -34t-19 -28t-28 -19t-34 -7t-34 7t-28 19t-19 28t-7 34zM71 706l17 16l106 -98l-17 -14z" />
    <glyph glyph-name="e" unicode="e" 
d="M18 32q0 -42 16 -83t43 -73t63 -52t77 -20h783v770h-663v2l37 16h626v28h-702q-28 0 -52.5 -10t-42.5 -27t-28.5 -40t-10.5 -49v-628h-2l-17 51v577q0 30 12 56t32.5 45.5t48.5 31t60 11.5h702v130h-793q-36 0 -70 -7t-60.5 -27.5t-42.5 -58t-16 -97.5v-546zM248 -24
q0 18 7 34t19 28t28 19t34 7t34 -7t28 -19t19 -28t7 -34t-7 -34t-19 -28t-28 -19t-34 -7t-34 7t-28 19t-19 28t-7 34zM740 -24q0 18 7 34t19 28t28 19t34 7t34 -7t28 -19t19 -28t7 -34t-7 -34t-19 -28t-28 -19t-34 -7t-34 7t-28 19t-19 28t-7 34zM740 448q0 37 26 62.5
t62 25.5t62 -25.5t26 -62.5q0 -18 -7 -34t-19 -28t-28 -19t-34 -7t-34 7t-28 19t-19 28t-7 34zM248 448q0 18 7 34t19 28t28 19t34 7t34 -7t28 -19t19 -28t7 -34t-7 -34t-19 -28t-28 -19t-34 -7t-34 7t-28 19t-19 28t-7 34zM71 706l17 16l106 -98l-17 -14zM494 212
q0 18 7 34t19 28t28 19t34 7t34 -7t28 -19t19 -28t7 -34t-7 -34t-19 -28t-28 -19t-34 -7t-34 7t-28 19t-19 28t-7 34z" />
    <glyph glyph-name="f" unicode="f" 
d="M18 32q0 -42 16 -83t43 -73t63 -52t77 -20h783v770h-663v2l37 16h626v28h-702q-28 0 -52.5 -10t-42.5 -27t-28.5 -40t-10.5 -49v-628h-2l-17 51v577q0 30 12 56t32.5 45.5t48.5 31t60 11.5h702v130h-793q-36 0 -70 -7t-60.5 -27.5t-42.5 -58t-16 -97.5v-546zM494 -24
q0 18 7 34t19 28t28 19t34 7t34 -7t28 -19t19 -28t7 -34t-7 -34t-19 -28t-28 -19t-34 -7t-34 7t-28 19t-19 28t-7 34zM248 -24q0 18 7 34t19 28t28 19t34 7t34 -7t28 -19t19 -28t7 -34t-7 -34t-19 -28t-28 -19t-34 -7t-34 7t-28 19t-19 28t-7 34zM740 -24q0 18 7 34t19 28
t28 19t34 7t34 -7t28 -19t19 -28t7 -34t-7 -34t-19 -28t-28 -19t-34 -7t-34 7t-28 19t-19 28t-7 34zM494 448q0 18 7 34t19 28t28 19t34 7q36 0 62 -26t26 -62q0 -18 -7 -34t-19 -28t-28 -19t-34 -7t-34 7t-28 19t-19 28t-7 34zM740 448q0 37 26 62.5t62 25.5t62 -25.5
t26 -62.5q0 -18 -7 -34t-19 -28t-28 -19t-34 -7t-34 7t-28 19t-19 28t-7 34zM248 448q0 18 7 34t19 28t28 19t34 7t34 -7t28 -19t19 -28t7 -34t-7 -34t-19 -28t-28 -19t-34 -7t-34 7t-28 19t-19 28t-7 34zM71 706l17 16l106 -98l-17 -14z" />
    <glyph glyph-name="g" unicode="g" 
d="M71 706l17 16l106 -98l-17 -14zM18 32q0 -42 16 -83t43 -73t63 -52t77 -20h783v770h-663v2l37 16h626v28h-702q-28 0 -52.5 -10t-42.5 -27t-28.5 -40t-10.5 -49v-628h-2l-17 51v577q0 30 12 56t32.5 45.5t48.5 31t60 11.5h702v130h-793q-36 0 -70 -7t-60.5 -27.5
t-42.5 -58t-16 -97.5v-546z" />
    <glyph glyph-name="h" unicode="h" 
d="M982 554q0 37 -17 75t-46.5 69t-70 50.5t-88.5 19.5h-760v-130h843l52 -16v-2h-895v-28h547v-2l-51 -16h-496v-770h842q29 0 54.5 10.5t44.5 28.5t30 42t11 51v618zM476 212q0 18 7 34t19 28.5t28 19.5t34 7t34 -7t28 -19.5t19 -28.5t7 -34t-7 -34t-19 -28t-28 -19
t-34 -7t-34 7t-28 19t-19 28t-7 34zM64 536h18v-636h-18v636z" />
    <glyph glyph-name="i" unicode="i" 
d="M982 554q0 37 -17 75t-46.5 69t-70 50.5t-88.5 19.5h-760v-130h843l52 -16v-2h-895v-28h547v-2l-51 -16h-496v-770h842q29 0 54.5 10.5t44.5 28.5t30 42t11 51v618zM230 -24q0 18 7 34t19 28.5t28 19.5t34 7t34 -7t28 -19.5t19 -28.5t7 -34t-7 -34t-19 -28t-28 -19
t-34 -7t-34 7t-28 19t-19 28t-7 34zM64 536h18v-636h-18v636zM722 448q0 18 7 34t19 28t28 19t34 7q36 0 62 -26t26 -62q0 -18 -7 -34t-19 -28t-28 -19t-34 -7t-34 7t-28 19t-19 28t-7 34z" />
    <glyph glyph-name="j" unicode="j" 
d="M982 554q0 37 -17 75t-46.5 69t-70 50.5t-88.5 19.5h-760v-130h843l52 -16v-2h-895v-28h547v-2l-51 -16h-496v-770h842q29 0 54.5 10.5t44.5 28.5t30 42t11 51v618zM230 -24q0 18 7 34t19 28.5t28 19.5t34 7t34 -7t28 -19.5t19 -28.5t7 -34t-7 -34t-19 -28t-28 -19
t-34 -7t-34 7t-28 19t-19 28t-7 34zM64 536h18v-636h-18v636zM722 448q0 18 7 34t19 28t28 19t34 7q36 0 62 -26t26 -62q0 -18 -7 -34t-19 -28t-28 -19t-34 -7t-34 7t-28 19t-19 28t-7 34zM476 212q0 18 7 34t19 28.5t28 19.5t34 7t34 -7t28 -19.5t19 -28.5t7 -34t-7 -34
t-19 -28t-28 -19t-34 -7t-34 7t-28 19t-19 28t-7 34z" />
    <glyph glyph-name="k" unicode="k" 
d="M982 554q0 37 -17 75t-46.5 69t-70 50.5t-88.5 19.5h-760v-130h843l52 -16v-2h-895v-28h547v-2l-51 -16h-496v-770h842q29 0 54.5 10.5t44.5 28.5t30 42t11 51v618zM64 536h18v-636h-18v636zM230 448q0 18 7 34t19 28t28 19t34 7t34 -7t28 -19t19 -28t7 -34t-7 -34
t-19 -28t-28 -19t-34 -7t-34 7t-28 19t-19 28t-7 34zM230 -24q0 18 7 34t19 28.5t28 19.5t34 7t34 -7t28 -19.5t19 -28.5t7 -34t-7 -34t-19 -28t-28 -19t-34 -7t-34 7t-28 19t-19 28t-7 34zM722 448q0 18 7 34t19 28t28 19t34 7q36 0 62 -26t26 -62q0 -18 -7 -34t-19 -28
t-28 -19t-34 -7t-34 7t-28 19t-19 28t-7 34zM722 -24q0 18 7 34t19 28.5t28 19.5t34 7t34 -7t28 -19.5t19 -28.5t7 -34t-7 -34t-19 -28t-28 -19t-34 -7t-34 7t-28 19t-19 28t-7 34z" />
    <glyph glyph-name="l" unicode="l" 
d="M982 554q0 37 -17 75t-46.5 69t-70 50.5t-88.5 19.5h-760v-130h843l52 -16v-2h-895v-28h547v-2l-51 -16h-496v-770h842q29 0 54.5 10.5t44.5 28.5t30 42t11 51v618zM64 536h18v-636h-18v636zM230 448q0 18 7 34t19 28t28 19t34 7t34 -7t28 -19t19 -28t7 -34t-7 -34
t-19 -28t-28 -19t-34 -7t-34 7t-28 19t-19 28t-7 34zM230 -24q0 18 7 34t19 28.5t28 19.5t34 7t34 -7t28 -19.5t19 -28.5t7 -34t-7 -34t-19 -28t-28 -19t-34 -7t-34 7t-28 19t-19 28t-7 34zM722 448q0 18 7 34t19 28t28 19t34 7q36 0 62 -26t26 -62q0 -18 -7 -34t-19 -28
t-28 -19t-34 -7t-34 7t-28 19t-19 28t-7 34zM722 -24q0 18 7 34t19 28.5t28 19.5t34 7t34 -7t28 -19.5t19 -28.5t7 -34t-7 -34t-19 -28t-28 -19t-34 -7t-34 7t-28 19t-19 28t-7 34zM476 212q0 18 7 34t19 28.5t28 19.5t34 7t34 -7t28 -19.5t19 -28.5t7 -34t-7 -34t-19 -28
t-28 -19t-34 -7t-34 7t-28 19t-19 28t-7 34z" />
    <glyph glyph-name="m" unicode="m" 
d="M982 554q0 37 -17 75t-46.5 69t-70 50.5t-88.5 19.5h-760v-130h843l52 -16v-2h-895v-28h547v-2l-51 -16h-496v-770h842q29 0 54.5 10.5t44.5 28.5t30 42t11 51v618zM476 448q0 18 7 34t19 28t28 19t34 7q36 0 62 -26t26 -62q0 -18 -7 -34t-19 -28t-28 -19t-34 -7t-34 7
t-28 19t-19 28t-7 34zM230 448q0 18 7 34t19 28t28 19t34 7t34 -7t28 -19t19 -28t7 -34t-7 -34t-19 -28t-28 -19t-34 -7t-34 7t-28 19t-19 28t-7 34zM64 536h18v-636h-18v636zM230 -24q0 18 7 34t19 28.5t28 19.5t34 7t34 -7t28 -19.5t19 -28.5t7 -34t-7 -34t-19 -28
t-28 -19t-34 -7t-34 7t-28 19t-19 28t-7 34zM476 -24q0 18 7 34t19 28.5t28 19.5t34 7t34 -7t28 -19.5t19 -28.5t7 -34t-7 -34t-19 -28t-28 -19t-34 -7t-34 7t-28 19t-19 28t-7 34zM722 448q0 18 7 34t19 28t28 19t34 7q36 0 62 -26t26 -62q0 -18 -7 -34t-19 -28t-28 -19
t-34 -7t-34 7t-28 19t-19 28t-7 34zM722 -24q0 18 7 34t19 28.5t28 19.5t34 7t34 -7t28 -19.5t19 -28.5t7 -34t-7 -34t-19 -28t-28 -19t-34 -7t-34 7t-28 19t-19 28t-7 34z" />
    <glyph glyph-name="n" unicode="n" 
d="M982 554q0 37 -17 75t-46.5 69t-70 50.5t-88.5 19.5h-760v-130h843l52 -16v-2h-895v-28h547v-2l-51 -16h-496v-770h842q29 0 54.5 10.5t44.5 28.5t30 42t11 51v618zM64 536h18v-636h-18v636z" />
    <glyph glyph-name="o" unicode="o" horiz-adv-x="834" 
d="M181 -180q3 -7 6 -7q4 0 5 7l78 236q5 14 -1 26l-204 443q-2 6 -5 6q-4 0 -5 -9l-49 -283q-1 -7 -1 -14t3 -14zM25 235q0 -14 5.5 -27t13 -24t16.5 -17.5t15 -6.5t11 5.5t5 19.5q0 13 -4.5 26t-11.5 23.5t-15.5 17.5t-15.5 8q-19 2 -19 -25zM222 -185q-2 -6 -2 -8
q0 -3 3.5 -3.5t7.5 1.5l448 227q8 4 13 9t8 11l116 237q4 6 4 9t-10 -3l-498 -230q-10 -5 -13 -16zM90 588q-15 -8 -15 -17t5 -19l204 -444q7 -14 24 -14q6 0 16 5l491 226q14 7 14 26q0 5 -7 17l-219 410q-7 14 -18 14q-5 0 -10 -2l-10 -4zM248 -140q0 -4 4.5 -8.5
t17.5 -4.5q15 0 33 5.5t34 14t27 19t11 20.5q0 5 -5 9.5t-19 4.5q-15 0 -33 -6t-33.5 -15t-26 -19.5t-10.5 -19.5zM308 35q0 -4 4.5 -8.5t17.5 -4.5q15 0 33 5.5t34 14t27 19t11 20.5q0 5 -5 9.5t-19 4.5q-15 0 -33 -6t-33.5 -15t-26 -19.5t-10.5 -19.5zM143 -43
q0 -14 5.5 -27t13 -24t16.5 -17.5t15 -6.5t11 5.5t5 19.5q0 13 -4.5 26t-11.5 23.5t-15.5 17.5t-15.5 8q-19 2 -19 -25zM300 52q3 11 13 16l492 227q10 6 10 3t-4 -9l-114 -234q-3 -6 -8 -11t-13 -9l-443 -224q-4 -2 -7.5 -1.5t-3.5 3.5q0 2 2 8zM193 111q0 -14 5.5 -27
t13 -24t16.5 -17.5t15 -6.5t11 5.5t5 19.5q0 13 -4.5 26t-11.5 23.5t-15.5 17.5t-15.5 8q-19 2 -19 -25zM109 178q0 -14 5.5 -27t13 -24t16.5 -17.5t15 -6.5t11 5.5t5 19.5q0 13 -4.5 26t-11.5 23.5t-15.5 17.5t-15.5 8q-19 2 -19 -25zM13 212q-3 7 -3 14t1 14l48 279
q1 9 5 9q3 0 5 -6l202 -437q6 -12 1 -26l-77 -233q-1 -7 -5 -7q-3 0 -6 7zM652 194q0 -4 4.5 -8.5t17.5 -4.5q15 0 33 5.5t34 14t27 19t11 20.5q0 5 -5 9.5t-19 4.5q-15 0 -33 -6t-33.5 -15t-26 -19.5t-10.5 -19.5zM566 22q0 -4 4.5 -8.5t17.5 -4.5q15 0 33 5.5t34 14t27 19
t11 20.5q0 5 -5 9.5t-19 4.5q-15 0 -33 -6t-33.5 -15t-26 -19.5t-10.5 -19.5zM563 780l10 4t10 2q11 0 18 -14l216 -405q7 -12 7 -17q0 -18 -14 -25l-485 -224q-10 -5 -16 -5q-16 0 -23 14l-202 439q-5 10 -5 19t15 16zM380 450q0 -28 21.5 -47t50.5 -19t50.5 19t21.5 47
q0 27 -21.5 46.5t-50.5 19.5t-50.5 -19.5t-21.5 -46.5zM53 417q0 -14 5.5 -27t13 -24t16.5 -17.5t15 -6.5t11 5.5t5 19.5q0 13 -4.5 26t-11.5 23.5t-15.5 17.5t-15.5 8q-19 2 -19 -25z" />
    <glyph glyph-name="p" unicode="p" horiz-adv-x="834" 
d="M25 235q0 -14 5.5 -27t13.5 -24t16.5 -17.5t14.5 -6.5t11.5 5.5t5.5 19.5q0 13 -5 26t-12 23.5t-15.5 17.5t-15.5 8q-19 2 -19 -25zM181 -180q3 -7 6 -7q4 0 5 7l78 236q5 14 -1 26l-204 443q-2 6 -5 6q-4 0 -5 -9l-49 -283q-1 -7 -1 -14t3 -14zM308 36q0 -4 4.5 -8.5
t17.5 -4.5q15 0 33 5.5t34 14t27 19t11 20.5q0 5 -5 9.5t-19 4.5q-15 0 -33 -6t-33.5 -15t-26 -19.5t-10.5 -19.5zM248 -136q0 -4 4.5 -8.5t17.5 -4.5q15 0 33 5.5t34 14t27 19t11 20.5q0 5 -5 9.5t-19 4.5q-15 0 -33 -6t-33.5 -15t-26 -19.5t-10.5 -19.5zM477 112
q0 -4 4.5 -8.5t17.5 -4.5q15 0 33 5.5t34 14t27 19t11 20.5q0 5 -5 9.5t-19 4.5q-15 0 -33 -6t-33.5 -15t-26 -19.5t-10.5 -19.5zM405 -56q0 -4 4.5 -8.5t17.5 -4.5q15 0 33 5.5t34 14t27 19t11 20.5q0 5 -5 9.5t-19 4.5q-15 0 -33 -6t-33.5 -15t-26 -19.5t-10.5 -19.5z
M278 222q0 -28 21.5 -47t50.5 -19t50.5 19t21.5 47q0 27 -21.5 46.5t-50.5 19.5t-50.5 -19.5t-21.5 -46.5zM652 194q0 -4 4.5 -8.5t17.5 -4.5q15 0 33 5.5t34 14t27 19t11 20.5q0 5 -5 9.5t-19 4.5q-15 0 -33 -6t-33.5 -15t-26 -19.5t-10.5 -19.5zM566 22q0 -4 4.5 -8.5
t17.5 -4.5q15 0 33 5.5t34 14t27 19t11 20.5q0 5 -5 9.5t-19 4.5q-15 0 -33 -6t-33.5 -15t-26 -19.5t-10.5 -19.5zM90 588q-15 -8 -15 -17t5 -19l204 -444q7 -14 24 -14q6 0 16 5l491 226q14 7 14 26q0 5 -7 17l-219 410q-7 14 -18 14q-5 0 -10 -2l-10 -4zM143 -43
q0 -14 5.5 -27t13.5 -24t16.5 -17.5t14.5 -6.5t11.5 5.5t5.5 19.5q0 13 -5 26t-12 23.5t-15.5 17.5t-15.5 8q-19 2 -19 -25zM469 666q0 -27 21.5 -46.5t50.5 -19.5t50.5 19.5t21.5 46.5q0 28 -21.5 47t-50.5 19t-50.5 -19t-21.5 -47zM193 111q0 -14 5.5 -27t13.5 -24
t16.5 -17.5t14.5 -6.5t11.5 5.5t5.5 19.5q0 13 -5 26t-12 23.5t-15.5 17.5t-15.5 8q-19 2 -19 -25zM222 -185q-2 -6 -2 -8q0 -3 3.5 -3.5t7.5 1.5l448 227q8 4 13 9t8 11l116 237q4 6 4 9t-10 -3l-498 -230q-10 -5 -13 -16zM13 212q-3 7 -3 14t1 14l48 279q1 9 5 9q3 0 5 -6
l202 -437q6 -12 1 -26l-77 -233q-1 -7 -5 -7q-3 0 -6 7zM53 417q0 -14 5.5 -27t13.5 -24t16.5 -17.5t14.5 -6.5t11.5 5.5t5.5 19.5q0 13 -5 26t-12 23.5t-15.5 17.5t-15.5 8q-19 2 -19 -25zM300 52q3 11 13 16l492 227q10 6 10 3t-4 -9l-114 -234q-3 -6 -8 -11t-13 -9
l-443 -224q-4 -2 -7.5 -1.5t-3.5 3.5q0 2 2 8zM563 780l10 4t10 2q11 0 18 -14l216 -405q7 -12 7 -17q0 -18 -14 -25l-485 -224q-10 -5 -16 -5q-16 0 -23 14l-202 439q-5 10 -5 19t15 16z" />
    <glyph glyph-name="q" unicode="q" horiz-adv-x="834" 
d="M610 107q0 -4 4.5 -8.5t17.5 -4.5q15 0 33 5.5t34 14t27 19t11 20.5q0 5 -5 9.5t-19 4.5q-15 0 -33 -6t-33.5 -15t-26 -19.5t-10.5 -19.5zM90 588q-15 -8 -15 -17t5 -19l204 -444q7 -14 24 -14q6 0 16 5l491 226q14 7 14 26q0 5 -7 17l-219 410q-7 14 -18 14q-5 0 -10 -2
l-10 -4zM181 -180q3 -7 6 -7q4 0 5 7l78 236q5 14 -1 26l-204 443q-2 6 -5 6q-4 0 -5 -9l-49 -283q-1 -7 -1 -14t3 -14zM248 -136q0 -4 4.5 -8.5t17.5 -4.5q15 0 33 5.5t34 14t27 19t11 20.5q0 5 -5 9.5t-19 4.5q-15 0 -33 -6t-33.5 -15t-26 -19.5t-10.5 -19.5zM143 -43
q0 -14 5.5 -27t13.5 -24t16.5 -17.5t14.5 -6.5t11.5 5.5t5.5 19.5q0 13 -5 26t-12 23.5t-15.5 17.5t-15.5 8q-19 2 -19 -25zM275 -51q0 -4 4.5 -8.5t17.5 -4.5q15 0 33 5.5t34 14t27 19t11 20.5q0 5 -5 9.5t-19 4.5q-15 0 -33 -6t-33.5 -15t-26 -19.5t-10.5 -19.5zM278 222
q0 -28 21.5 -47t50.5 -19t50.5 19t21.5 47q0 27 -21.5 46.5t-50.5 19.5t-50.5 -19.5t-21.5 -46.5zM469 666q0 -27 21.5 -46.5t50.5 -19.5t50.5 19.5t21.5 46.5q0 28 -21.5 47t-50.5 19t-50.5 -19t-21.5 -47zM383 447q0 -27 21.5 -46.5t50.5 -19.5t50.5 19.5t21.5 46.5
t-21.5 46.5t-50.5 19.5t-50.5 -19.5t-21.5 -46.5zM308 36q0 -4 4.5 -8.5t17.5 -4.5q15 0 33 5.5t34 14t27 19t11 20.5q0 5 -5 9.5t-19 4.5q-15 0 -33 -6t-33.5 -15t-26 -19.5t-10.5 -19.5zM652 194q0 -4 4.5 -8.5t17.5 -4.5q15 0 33 5.5t34 14t27 19t11 20.5q0 5 -5 9.5
t-19 4.5q-15 0 -33 -6t-33.5 -15t-26 -19.5t-10.5 -19.5zM566 22q0 -4 4.5 -8.5t17.5 -4.5q15 0 33 5.5t34 14t27 19t11 20.5q0 5 -5 9.5t-19 4.5q-15 0 -33 -6t-33.5 -15t-26 -19.5t-10.5 -19.5zM53 417q0 -14 5.5 -27t13.5 -24t16.5 -17.5t14.5 -6.5t11.5 5.5t5.5 19.5
q0 13 -5 26t-12 23.5t-15.5 17.5t-15.5 8q-19 2 -19 -25zM222 -185q-2 -6 -2 -8q0 -3 3.5 -3.5t7.5 1.5l448 227q8 4 13 9t8 11l116 237q4 6 4 9t-10 -3l-498 -230q-10 -5 -13 -16zM300 52q3 11 13 16l492 227q10 6 10 3t-4 -9l-114 -234q-3 -6 -8 -11t-13 -9l-443 -224
q-4 -2 -7.5 -1.5t-3.5 3.5q0 2 2 8zM13 212q-3 7 -3 14t1 14l48 279q1 9 5 9q3 0 5 -6l202 -437q6 -12 1 -26l-77 -233q-1 -7 -5 -7q-3 0 -6 7zM563 780l10 4t10 2q11 0 18 -14l216 -405q7 -12 7 -17q0 -18 -14 -25l-485 -224q-10 -5 -16 -5q-16 0 -23 14l-202 439
q-5 10 -5 19t15 16z" />
    <glyph glyph-name="r" unicode="r" horiz-adv-x="834" 
d="M90 588q-15 -8 -15 -17t5 -19l204 -444q7 -14 24 -14q6 0 16 5l491 226q14 7 14 26q0 5 -7 17l-219 410q-7 14 -18 14q-5 0 -10 -2l-10 -4zM278 222q0 27 21.5 46.5t50.5 19.5t50.5 -19.5t21.5 -46.5q0 -28 -21.5 -47t-50.5 -19t-50.5 19t-21.5 47zM466 669
q0 27 21.5 46.5t50.5 19.5t50.5 -19.5t21.5 -46.5t-21.5 -46.5t-50.5 -19.5t-50.5 19.5t-21.5 46.5zM139 531q0 27 21.5 46.5t50.5 19.5t50.5 -19.5t21.5 -46.5t-21.5 -46.5t-50.5 -19.5t-50.5 19.5t-21.5 46.5zM620 378q0 27 21.5 46.5t50.5 19.5t50.5 -19.5t21.5 -46.5
t-21.5 -46.5t-50.5 -19.5t-50.5 19.5t-21.5 46.5zM143 -43q0 27 19 25q7 -1 15.5 -8t15.5 -17.5t12 -23.5t5 -26q0 -14 -5.5 -19.5t-11.5 -5.5t-14.5 6.5t-16.5 17.5t-13.5 24t-5.5 27zM53 417q0 27 19 25q7 -1 15.5 -8t15.5 -17.5t12 -23.5t5 -26q0 -14 -5.5 -19.5
t-11.5 -5.5t-14.5 6.5t-16.5 17.5t-13.5 24t-5.5 27zM447 33q0 9 10.5 19.5t26 19.5t33.5 15t33 6q14 0 19 -4.5t5 -9.5q0 -10 -11 -20.5t-27 -19t-34 -14t-33 -5.5q-13 0 -17.5 4.5t-4.5 8.5zM181 -180q3 -7 6 -7q4 0 5 7l78 236q5 14 -1 26l-204 443q-2 6 -5 6q-4 0 -5 -9
l-49 -283q-1 -7 -1 -14t3 -14zM222 -185q-2 -6 -2 -8q0 -3 3.5 -3.5t7.5 1.5l448 227q8 4 13 9t8 11l116 237q4 6 4 9t-10 -3l-498 -230q-10 -5 -13 -16zM300 52q3 11 13 16l492 227q10 6 10 3t-4 -9l-114 -234q-3 -6 -8 -11t-13 -9l-443 -224q-4 -2 -7.5 -1.5t-3.5 3.5
q0 2 2 8zM13 212q-3 7 -3 14t1 14l48 279q1 9 5 9q3 0 5 -6l202 -437q6 -12 1 -26l-77 -233q-1 -7 -5 -7q-3 0 -6 7zM563 780l10 4t10 2q11 0 18 -14l216 -405q7 -12 7 -17q0 -18 -14 -25l-485 -224q-10 -5 -16 -5q-16 0 -23 14l-202 439q-5 10 -5 19t15 16z" />
    <glyph glyph-name="s" unicode="s" horiz-adv-x="834" 
d="M90 588q-15 -8 -15 -17t5 -19l204 -444q7 -14 24 -14q6 0 16 5l491 226q14 7 14 26q0 5 -7 17l-219 410q-7 14 -18 14q-5 0 -10 -2l-10 -4zM469 666q0 28 21.5 47t50.5 19t50.5 -19t21.5 -47q0 -27 -21.5 -46.5t-50.5 -19.5t-50.5 19.5t-21.5 46.5zM278 222
q0 27 21.5 46.5t50.5 19.5t50.5 -19.5t21.5 -46.5q0 -28 -21.5 -47t-50.5 -19t-50.5 19t-21.5 47zM620 378q0 27 21.5 46.5t50.5 19.5t50.5 -19.5t21.5 -46.5t-21.5 -46.5t-50.5 -19.5t-50.5 19.5t-21.5 46.5zM139 531q0 27 21.5 46.5t50.5 19.5t50.5 -19.5t21.5 -46.5
t-21.5 -46.5t-50.5 -19.5t-50.5 19.5t-21.5 46.5zM382 447q0 27 21.5 46.5t50.5 19.5t50.5 -19.5t21.5 -46.5t-21.5 -46.5t-50.5 -19.5t-50.5 19.5t-21.5 46.5zM181 -180q3 -7 6 -7q4 0 5 7l78 236q5 14 -1 26l-204 443q-2 6 -5 6q-4 0 -5 -9l-49 -283q-1 -7 -1 -14t3 -14z
M193 111q0 27 19 25q7 -1 15.5 -8t15.5 -17.5t12 -23.5t5 -26q0 -14 -5.5 -19.5t-11.5 -5.5t-14.5 6.5t-16.5 17.5t-13.5 24t-5.5 27zM25 235q0 27 19 25q7 -1 15.5 -8t15.5 -17.5t12 -23.5t5 -26q0 -14 -5.5 -19.5t-11.5 -5.5t-14.5 6.5t-16.5 17.5t-13.5 24t-5.5 27z
M445 35q0 9 10.5 19.5t26 19.5t33.5 15t33 6q14 0 19 -4.5t5 -9.5q0 -10 -11 -20.5t-27 -19t-34 -14t-33 -5.5q-13 0 -17.5 4.5t-4.5 8.5zM143 -43q0 27 19 25q7 -1 15.5 -8t15.5 -17.5t12 -23.5t5 -26q0 -14 -5.5 -19.5t-11.5 -5.5t-14.5 6.5t-16.5 17.5t-13.5 24t-5.5 27z
M53 417q0 27 19 25q7 -1 15.5 -8t15.5 -17.5t11.5 -23.5t4.5 -26q0 -14 -5 -19.5t-11 -5.5t-15 6.5t-16.5 17.5t-13 24t-5.5 27zM222 -185q-2 -6 -2 -8q0 -3 3.5 -3.5t7.5 1.5l448 227q8 4 13 9t8 11l116 237q4 6 4 9t-10 -3l-498 -230q-10 -5 -13 -16zM300 52q3 11 13 16
l492 227q10 6 10 3t-4 -9l-114 -234q-3 -6 -8 -11t-13 -9l-443 -224q-4 -2 -7.5 -1.5t-3.5 3.5q0 2 2 8zM13 212q-3 7 -3 14t1 14l48 279q1 9 5 9q3 0 5 -6l202 -437q6 -12 1 -26l-77 -233q-1 -7 -5 -7q-3 0 -6 7zM563 780l10 4t10 2q11 0 18 -14l216 -405q7 -12 7 -17
q0 -18 -14 -25l-485 -224q-10 -5 -16 -5q-16 0 -23 14l-202 439q-5 10 -5 19t15 16z" />
    <glyph glyph-name="t" unicode="t" horiz-adv-x="834" 
d="M90 588q-15 -8 -15 -17t5 -19l204 -444q7 -14 24 -14q6 0 16 5l491 226q14 7 14 26q0 5 -7 17l-219 410q-7 14 -18 14q-5 0 -10 -2l-10 -4zM620 377q0 27 21.5 46.5t50.5 19.5t50.5 -19.5t21.5 -46.5t-21.5 -46.5t-50.5 -19.5t-50.5 19.5t-21.5 46.5zM278 222
q0 27 21.5 46.5t50.5 19.5t50.5 -19.5t21.5 -46.5q0 -28 -21.5 -47t-50.5 -19t-50.5 19t-21.5 47zM451 302q0 27 21.5 46.5t50.5 19.5t50.5 -19.5t21.5 -46.5q0 -28 -21.5 -47t-50.5 -19t-50.5 19t-21.5 47zM308 35q0 9 10.5 19.5t26 19.5t33.5 15t33 6q14 0 19 -4.5t5 -9.5
q0 -10 -11 -20.5t-27 -19t-34 -14t-33 -5.5q-13 0 -17.5 4.5t-4.5 8.5zM248 -134q0 9 10.5 19.5t26 19.5t33.5 15t33 6q14 0 19 -4.5t5 -9.5q0 -10 -11 -20.5t-27 -19t-34 -14t-33 -5.5q-13 0 -17.5 4.5t-4.5 8.5zM469 666q0 28 21.5 47t50.5 19t50.5 -19t21.5 -47
q0 -27 -21.5 -46.5t-50.5 -19.5t-50.5 19.5t-21.5 46.5zM139 531q0 27 21.5 46.5t50.5 19.5t50.5 -19.5t21.5 -46.5t-21.5 -46.5t-50.5 -19.5t-50.5 19.5t-21.5 46.5zM304 597q0 28 21.5 47t50.5 19t50.5 -19t21.5 -47q0 -27 -21.5 -46.5t-50.5 -19.5t-50.5 19.5t-21.5 46.5
zM652 194q0 9 10.5 19.5t26 19.5t33.5 15t33 6q14 0 19 -4.5t5 -9.5q0 -10 -11 -20.5t-27 -19t-34 -14t-33 -5.5q-13 0 -17.5 4.5t-4.5 8.5zM143 -43q0 27 19 25q7 -1 15.5 -8t15.5 -17.5t12 -23.5t5 -26q0 -14 -5.5 -19.5t-11.5 -5.5t-14.5 6.5t-16.5 17.5t-13.5 24
t-5.5 27zM566 22q0 9 10.5 19.5t26 19.5t33.5 15t33 6q14 0 19 -4.5t5 -9.5q0 -10 -11 -20.5t-27 -19t-34 -14t-33 -5.5q-13 0 -17.5 4.5t-4.5 8.5zM13 212q-3 7 -3 14t1 14l48 279q1 9 5 9q3 0 5 -6l202 -437q6 -12 1 -26l-77 -233q-1 -7 -5 -7q-3 0 -6 7zM181 -180
q3 -7 6 -7q4 0 5 7l78 236q5 14 -1 26l-204 443q-2 6 -5 6q-4 0 -5 -9l-49 -283q-1 -7 -1 -14t3 -14zM193 111q0 27 19 25q7 -1 15.5 -8t15.5 -17.5t12 -23.5t5 -26q0 -14 -5.5 -19.5t-11.5 -5.5t-14.5 6.5t-16.5 17.5t-13.5 24t-5.5 27zM25 235q0 27 19 25q7 -1 15.5 -8
t15.5 -17.5t12 -23.5t5 -26q0 -14 -5.5 -19.5t-11.5 -5.5t-14.5 6.5t-16.5 17.5t-13.5 24t-5.5 27zM222 -185q-2 -6 -2 -8q0 -3 3.5 -3.5t7.5 1.5l448 227q8 4 13 9t8 11l116 237q4 6 4 9t-10 -3l-498 -230q-10 -5 -13 -16zM447 33q0 9 10.5 19.5t26 19.5t33.5 15t33 6
q14 0 19 -4.5t5 -9.5q0 -10 -11 -20.5t-27 -19t-34 -14t-33 -5.5q-13 0 -17.5 4.5t-4.5 8.5zM53 417q0 27 19 25q7 -1 15.5 -8t15.5 -17.5t11.5 -23.5t4.5 -26q0 -14 -5 -19.5t-11 -5.5t-15 6.5t-16.5 17.5t-13 24t-5.5 27zM300 52q3 11 13 16l492 227q10 6 10 3t-4 -9
l-114 -234q-3 -6 -8 -11t-13 -9l-443 -224q-4 -2 -7.5 -1.5t-3.5 3.5q0 2 2 8zM563 780l10 4t10 2q11 0 18 -14l216 -405q7 -12 7 -17q0 -18 -14 -25l-485 -224q-10 -5 -16 -5q-16 0 -23 14l-202 439q-5 10 -5 19t15 16z" />
    <glyph glyph-name="u" unicode="u" 
d="M30 692q0 26 19 45t45 19h812q26 0 45 -19t19 -45v-812q0 -26 -19 -45t-45 -19h-812q-26 0 -45 19t-19 45v812zM0 -136q0 -32 23 -55t55 -23h844q32 0 55 23t23 55v844q0 32 -23 55t-55 23h-844q-32 0 -55 -23t-23 -55v-844zM407 286q0 -19 7.5 -36t20 -29.5t29.5 -20
t36 -7.5t36 7.5t29.5 20t20 29.5t7.5 36t-7.5 36t-20 29.5t-29.5 20t-36 7.5t-36 -7.5t-29.5 -20t-20 -29.5t-7.5 -36z" />
    <glyph glyph-name="v" unicode="v" 
d="M30 692q0 26 19 45t45 19h812q26 0 45 -19t19 -45v-812q0 -26 -19 -45t-45 -19h-812q-26 0 -45 19t-19 45v812zM0 -136q0 -32 23 -55t55 -23h844q32 0 55 23t23 55v844q0 32 -23 55t-55 23h-844q-32 0 -55 -23t-23 -55v-844zM186 65q0 -19 7.5 -36t20 -29.5t29.5 -20
t36 -7.5t36 7.5t29.5 20t20 29.5t7.5 36t-7.5 36t-20 29.5t-29.5 20t-36 7.5t-36 -7.5t-29.5 -20t-20 -29.5t-7.5 -36zM628 507q0 -19 7.5 -36t20 -29.5t29.5 -20t36 -7.5t36 7.5t29.5 20t20 29.5t7.5 36t-7.5 36t-20 29.5t-29.5 20t-36 7.5t-36 -7.5t-29.5 -20t-20 -29.5
t-7.5 -36z" />
    <glyph glyph-name="w" unicode="w" 
d="M30 692q0 26 19 45t45 19h812q26 0 45 -19t19 -45v-812q0 -26 -19 -45t-45 -19h-812q-26 0 -45 19t-19 45v812zM0 -136q0 -32 23 -55t55 -23h844q32 0 55 23t23 55v844q0 32 -23 55t-55 23h-844q-32 0 -55 -23t-23 -55v-844zM186 65q0 -19 7.5 -36t20 -29.5t29.5 -20
t36 -7.5t36 7.5t29.5 20t20 29.5t7.5 36t-7.5 36t-20 29.5t-29.5 20t-36 7.5t-36 -7.5t-29.5 -20t-20 -29.5t-7.5 -36zM628 507q0 -19 7.5 -36t20 -29.5t29.5 -20t36 -7.5t36 7.5t29.5 20t20 29.5t7.5 36t-7.5 36t-20 29.5t-29.5 20t-36 7.5t-36 -7.5t-29.5 -20t-20 -29.5
t-7.5 -36zM407 286q0 -19 7.5 -36t20 -29.5t29.5 -20t36 -7.5t36 7.5t29.5 20t20 29.5t7.5 36t-7.5 36t-20 29.5t-29.5 20t-36 7.5t-36 -7.5t-29.5 -20t-20 -29.5t-7.5 -36z" />
    <glyph glyph-name="x" unicode="x" 
d="M30 692q0 26 19 45t45 19h812q26 0 45 -19t19 -45v-812q0 -26 -19 -45t-45 -19h-812q-26 0 -45 19t-19 45v812zM0 -136q0 -32 23 -55t55 -23h844q32 0 55 23t23 55v844q0 32 -23 55t-55 23h-844q-32 0 -55 -23t-23 -55v-844zM186 65q0 -19 7.5 -36t20 -29.5t29.5 -20
t36 -7.5t36 7.5t29.5 20t20 29.5t7.5 36t-7.5 36t-20 29.5t-29.5 20t-36 7.5t-36 -7.5t-29.5 -20t-20 -29.5t-7.5 -36zM628 507q0 -19 7.5 -36t20 -29.5t29.5 -20t36 -7.5t36 7.5t29.5 20t20 29.5t7.5 36t-7.5 36t-20 29.5t-29.5 20t-36 7.5t-36 -7.5t-29.5 -20t-20 -29.5
t-7.5 -36zM186 507q0 -19 7.5 -36t20 -29.5t29.5 -20t36 -7.5t36 7.5t29.5 20t20 29.5t7.5 36t-7.5 36t-20 29.5t-29.5 20t-36 7.5t-36 -7.5t-29.5 -20t-20 -29.5t-7.5 -36zM628 65q0 -19 7.5 -36t20 -29.5t29.5 -20t36 -7.5t36 7.5t29.5 20t20 29.5t7.5 36t-7.5 36
t-20 29.5t-29.5 20t-36 7.5t-36 -7.5t-29.5 -20t-20 -29.5t-7.5 -36z" />
    <glyph glyph-name="y" unicode="y" 
d="M30 692q0 26 19 45t45 19h812q26 0 45 -19t19 -45v-812q0 -26 -19 -45t-45 -19h-812q-26 0 -45 19t-19 45v812zM0 -136q0 -32 23 -55t55 -23h844q32 0 55 23t23 55v844q0 32 -23 55t-55 23h-844q-32 0 -55 -23t-23 -55v-844zM186 65q0 -19 7.5 -36t20 -29.5t29.5 -20
t36 -7.5t36 7.5t29.5 20t20 29.5t7.5 36t-7.5 36t-20 29.5t-29.5 20t-36 7.5t-36 -7.5t-29.5 -20t-20 -29.5t-7.5 -36zM628 507q0 -19 7.5 -36t20 -29.5t29.5 -20t36 -7.5t36 7.5t29.5 20t20 29.5t7.5 36t-7.5 36t-20 29.5t-29.5 20t-36 7.5t-36 -7.5t-29.5 -20t-20 -29.5
t-7.5 -36zM186 507q0 -19 7.5 -36t20 -29.5t29.5 -20t36 -7.5t36 7.5t29.5 20t20 29.5t7.5 36t-7.5 36t-20 29.5t-29.5 20t-36 7.5t-36 -7.5t-29.5 -20t-20 -29.5t-7.5 -36zM628 65q0 -19 7.5 -36t20 -29.5t29.5 -20t36 -7.5t36 7.5t29.5 20t20 29.5t7.5 36t-7.5 36
t-20 29.5t-29.5 20t-36 7.5t-36 -7.5t-29.5 -20t-20 -29.5t-7.5 -36zM407 286q0 -19 7.5 -36t20 -29.5t29.5 -20t36 -7.5t36 7.5t29.5 20t20 29.5t7.5 36t-7.5 36t-20 29.5t-29.5 20t-36 7.5t-36 -7.5t-29.5 -20t-20 -29.5t-7.5 -36z" />
    <glyph glyph-name="z" unicode="z" 
d="M30 692q0 26 19 45t45 19h812q26 0 45 -19t19 -45v-812q0 -26 -19 -45t-45 -19h-812q-26 0 -45 19t-19 45v812zM0 -136q0 -32 23 -55t55 -23h844q32 0 55 23t23 55v844q0 32 -23 55t-55 23h-844q-32 0 -55 -23t-23 -55v-844zM186 65q0 -19 7.5 -36t20 -29.5t29.5 -20
t36 -7.5t36 7.5t29.5 20t20 29.5t7.5 36t-7.5 36t-20 29.5t-29.5 20t-36 7.5t-36 -7.5t-29.5 -20t-20 -29.5t-7.5 -36zM628 507q0 -19 7.5 -36t20 -29.5t29.5 -20t36 -7.5t36 7.5t29.5 20t20 29.5t7.5 36t-7.5 36t-20 29.5t-29.5 20t-36 7.5t-36 -7.5t-29.5 -20t-20 -29.5
t-7.5 -36zM186 507q0 -19 7.5 -36t20 -29.5t29.5 -20t36 -7.5t36 7.5t29.5 20t20 29.5t7.5 36t-7.5 36t-20 29.5t-29.5 20t-36 7.5t-36 -7.5t-29.5 -20t-20 -29.5t-7.5 -36zM628 65q0 -19 7.5 -36t20 -29.5t29.5 -20t36 -7.5t36 7.5t29.5 20t20 29.5t7.5 36t-7.5 36
t-20 29.5t-29.5 20t-36 7.5t-36 -7.5t-29.5 -20t-20 -29.5t-7.5 -36zM186 286q0 -19 7.5 -36t20 -29.5t29.5 -20t36 -7.5t36 7.5t29.5 20t20 29.5t7.5 36t-7.5 36t-20 29.5t-29.5 20t-36 7.5t-36 -7.5t-29.5 -20t-20 -29.5t-7.5 -36zM628 286q0 -19 7.5 -36t20 -29.5
t29.5 -20t36 -7.5t36 7.5t29.5 20t20 29.5t7.5 36t-7.5 36t-20 29.5t-29.5 20t-36 7.5t-36 -7.5t-29.5 -20t-20 -29.5t-7.5 -36z" />
    <glyph glyph-name="A" unicode="A" 
d="M574 292q18 0 34 -7t28 -19t19 -28t7 -34t-7 -34t-19 -28t-28 -19t-34 -7t-34 7t-28 19t-19 28t-7 34t7 34t19 28t28 19t34 7zM198 626l-20 -18l-112 94l22 20zM18 -214h130v702q0 32 11 60t30.5 48.5t46 32.5t56.5 12h577l51 -17v-2h-628q-26 0 -49 -10.5t-40 -28.5
t-27 -42.5t-10 -52.5v-702h28v626l16 37h2v-663h770v783q0 40 -20 76.5t-52 63.5t-73 43t-83 16h-546q-60 0 -97.5 -16t-58 -42.5t-27.5 -60.5t-7 -70v-793z" />
    <glyph glyph-name="numbersign" unicode="#" 
 />
    <glyph glyph-name="equal" unicode="=" horiz-adv-x="500" 
 />
  </font>
</defs>
</svg>
